<?xml version="1.0" encoding="UTF-8"?>
<svg id="svg18" xmlns="http://www.w3.org/2000/svg" xmlns:xlink="http://www.w3.org/1999/xlink" xmlns:svg="http://www.w3.org/2000/svg" xmlns:sodipodi="http://sodipodi.sourceforge.net/DTD/sodipodi-0.dtd" xmlns:inkscape="http://www.inkscape.org/namespaces/inkscape" version="1.1" viewBox="0 0 1920 1080">
  <!-- Generator: Adobe Illustrator 29.8.2, SVG Export Plug-In . SVG Version: 2.1.1 Build 3)  -->
  <defs>
    <style>
      .st0 {
        fill: none;
      }

      .st1 {
        fill: url(#radial-gradient);
      }

      .st2 {
        fill: #fff;
      }

      .st3 {
        stroke: #000;
        stroke-miterlimit: 10;
      }

      .st4 {
        display: none;
      }

      .st5 {
        fill: #999b9e;
      }

      .st6 {
        clip-path: url(#clippath);
      }
    </style>
    <clipPath id="clippath">
      <path class="st0" d="M1738.35,546c14.91,0,28.94,3.78,41.18,10.44v53.33h-92.59v45.08h92.59v53.33c-12.24,6.66-26.27,10.44-41.18,10.44-47.67,0-86.31-38.64-86.31-86.31s38.64-86.31,86.31-86.31h0Z"/>
    </clipPath>
    <radialGradient id="radial-gradient" cx="1952.86" cy="372.82" fx="1952.86" fy="372.82" r="87.04" gradientTransform="translate(-1387.92 1256.59) scale(1.58 -1.59)" gradientUnits="userSpaceOnUse">
      <stop offset="0" stop-color="#c6c6c6"/>
      <stop offset="1" stop-color="#000"/>
    </radialGradient>
  </defs>
  <sodipodi:namedview id="namedview18" bordercolor="#000000" borderopacity="0.25" inkscape:current-layer="svg18" inkscape:cx="1045.8173" inkscape:cy="776.72663" inkscape:deskcolor="#d1d1d1" inkscape:pagecheckerboard="0" inkscape:pageopacity="0.0" inkscape:showpageshadow="2" inkscape:window-height="723" inkscape:window-maximized="0" inkscape:window-width="1416" inkscape:window-x="0" inkscape:window-y="38" inkscape:zoom="0.34375029" pagecolor="#ffffff"/>
  <g id="Black" class="st4">
    <rect id="rect2" class="st3" y="0" width="1920" height="1080"/>
  </g>
  <g id="Front">
    <g id="g18">
      <g id="g12">
        <path id="path3" class="st2" d="M143.38,543.65v-81.92c0-16.21-2.36-27.4-17.97-27.4-14.44,0-20.63,9.72-20.63,26.52v82.8h-57.75v-151.75h55.69v9.43c0,3.54-.29,7.07-.29,10.9h.59c10.31-16.21,27.11-24.16,48.32-24.16,19.74,0,35.65,8.55,42.73,23.87,8.25-12.67,25.34-23.87,50.98-23.87,18.56,0,30.94,5.89,39.19,14.44,9.72,9.72,13.55,23.87,13.55,37.13v104.02h-58.05v-81.92c0-16.21-2.36-27.4-17.97-27.4-14.44,0-20.63,9.72-20.63,26.52v82.8h-57.76,0Z"/>
        <path id="path4" class="st2" d="M465.74,543.65h-55.99v-6.78c0-2.06.29-8.54.29-12.96h-.59c-10.02,15.62-26.23,23.57-48.62,23.57-15.32,0-28.88-4.71-38.6-14.44-8.54-8.55-13.85-20.04-13.85-38.01v-103.13h57.75v80.15c0,17.97,3.54,29.17,19.74,29.17s22.1-11.49,22.1-29.47v-79.85h57.75v151.75h.02Z"/>
        <path id="path5" class="st2" d="M639.29,467.92c0,44.79-35.06,79.85-83.68,79.85s-83.68-35.06-83.68-79.85,35.06-79.85,83.68-79.85,83.68,34.77,83.68,79.85ZM580.65,467.92c0-19.15-5.6-38.31-25.05-38.31s-25.05,19.15-25.05,38.31,5.89,38.9,25.05,38.9,25.05-19.45,25.05-38.9Z"/>
        <path id="path6" class="st2" d="M645.48,391.89h55.99v6.78c0,2.06-.29,8.55-.29,12.97h.59c9.72-15.32,27.4-23.57,48.91-23.57,15.32,0,28.88,4.71,38.6,14.44,8.54,8.55,13.85,20.04,13.85,38.01v103.13h-57.75v-80.15c0-17.97-3.54-29.17-19.74-29.17s-22.39,11.49-22.39,29.47v79.85h-57.75v-151.75h-.02,0Z"/>
        <path id="path7" class="st2" d="M814.91,557.59h58.05v151.75h-58.05v-151.75Z"/>
        <path id="path8" class="st2" d="M995.53,709.34h-68.36l-49.8-151.75h61l10.61,40.66c3.54,13.26,7.66,31.82,13.26,55.4h.59c5.6-22.69,9.72-41.55,13.55-55.99l10.31-40.07h58.93l-50.09,151.75h0Z"/>
        <path id="path9" class="st2" d="M1087.46,646.58c.88,16.79,11.79,28.58,29.76,28.58,13.85,0,22.39-5.6,27.11-13.85h53.63c-10.61,32.41-43.91,51.86-81.03,51.86-48.91,0-82.8-31.53-82.8-79.26,0-43.9,33-80.15,83.09-80.15s81.92,33.89,82.8,92.82h-112.56ZM1144.62,616.52c-1.18-13.85-10.9-25.93-27.11-25.93s-27.4,10.9-28.88,25.93h55.99Z"/>
        <path id="path10" class="st2" d="M1208.56,557.59h55.1v23.28h.59c5.6-16.8,22.39-26.81,43.61-26.81,5.89,0,8.84,0,12.38.88v50.39c-4.42-.88-9.72-1.47-15.62-1.47-13.26,0-23.57,4.12-30.35,12.08-5.6,6.78-8.25,17.09-8.25,31.53v61.88h-57.46v-151.75h0Z"/>
        <path id="path11" class="st2" d="M1416.88,602.08c-.29-9.72-7.37-16.21-20.04-16.21-9.72,0-17.09,3.24-17.09,11.2,0,7.37,8.25,9.72,20.92,12.08l19.74,3.83c11.49,2.36,27.4,6.19,37.72,14.14,9.43,7.07,15.91,17.38,15.91,32.41,0,42.14-40.37,53.63-77.2,53.63s-74.84-14.14-75.73-54.22h55.1c.88,13.26,10.9,18.56,22.69,18.56s19.45-4.13,19.45-12.67c0-6.78-4.71-9.43-17.38-12.08l-27.11-5.6c-34.48-7.07-49.21-21.22-49.21-45.08,0-38.6,41.25-48.33,71.6-48.33,32.71,0,72.19,9.13,73.67,48.33h-53.04Z"/>
        <path id="path12" class="st2" d="M1531.5,646.58c.88,16.79,11.79,28.58,29.76,28.58,13.85,0,22.39-5.6,27.11-13.85h53.63c-10.61,32.41-43.91,51.86-81.03,51.86-48.91,0-82.8-31.53-82.8-79.26,0-43.9,33-80.15,83.09-80.15s81.92,33.89,82.8,92.82h-112.56ZM1588.67,616.52c-1.18-13.85-10.9-25.93-27.11-25.93s-27.4,10.9-28.88,25.93h55.99Z"/>
      </g>
      <g id="g17">
        <g id="g14">
          <path id="path13" d="M1738.35,546c14.91,0,28.94,3.78,41.18,10.44v53.33h-92.59v45.08h92.59v53.33c-12.24,6.66-26.27,10.44-41.18,10.44-47.67,0-86.31-38.64-86.31-86.31s38.64-86.31,86.31-86.31h0Z"/>
          <polygon id="polygon13" points="1844.88 609.77 1825.49 609.77 1825.49 556.43 1779.52 556.43 1779.52 609.77 1686.94 609.77 1686.94 654.85 1779.52 654.85 1779.52 708.18 1825.49 708.18 1825.49 654.85 1844.88 654.85 1844.88 609.77"/>
          <polygon id="polygon14" class="st2" points="1844.88 632.31 1779.52 556.43 1779.52 556.43 1825.49 556.43 1825.49 609.77 1878.82 609.77 1878.82 654.85 1825.49 654.85 1825.49 708.18 1779.52 708.18 1779.52 708.18 1844.88 632.31"/>
        </g>
        <g id="g16">
          <path id="path14" d="M1738.35,546c14.91,0,28.94,3.78,41.18,10.44v53.33h-92.59v45.08h92.59v53.33c-12.24,6.66-26.27,10.44-41.18,10.44-47.67,0-86.31-38.64-86.31-86.31s38.64-86.31,86.31-86.31h0Z"/>
          <g class="st6">
            <g id="g15">
              <circle id="path19" class="st1" cx="1738.35" cy="631.58" r="87.04"/>
            </g>
          </g>
        </g>
      </g>
    </g>
    <circle id="circle18" class="st5" cx="844.45" cy="515.34" r="32.79"/>
  </g>
</svg>